<?xml version="1.0" encoding="UTF-8" standalone="no"?>
<!-- Generator: Adobe Illustrator 17.0.1, SVG Export Plug-In . SVG Version: 6.00 Build 0)  -->

<svg
   xmlns:dc="http://purl.org/dc/elements/1.1/"
   xmlns:cc="http://creativecommons.org/ns#"
   xmlns:rdf="http://www.w3.org/1999/02/22-rdf-syntax-ns#"
   xmlns:svg="http://www.w3.org/2000/svg"
   xmlns="http://www.w3.org/2000/svg"
   xmlns:sodipodi="http://sodipodi.sourceforge.net/DTD/sodipodi-0.dtd"
   xmlns:inkscape="http://www.inkscape.org/namespaces/inkscape"
   version="1.1"
   id="Layer_1"
   x="0px"
   y="0px"
   width="64px"
   height="64px"
   viewBox="0 0 64 64"
   style="enable-background:new 0 0 64 64;"
   xml:space="preserve"
   sodipodi:docname="icon-m-undo.svg"
   inkscape:version="0.92.3 (2405546, 2018-03-11)"><metadata
   id="metadata13"><rdf:RDF><cc:Work
       rdf:about=""><dc:format>image/svg+xml</dc:format><dc:type
         rdf:resource="http://purl.org/dc/dcmitype/StillImage" /></cc:Work></rdf:RDF></metadata><defs
   id="defs11">
	
	
	
</defs><sodipodi:namedview
   pagecolor="#ffffff"
   bordercolor="#666666"
   borderopacity="1"
   objecttolerance="10"
   gridtolerance="10"
   guidetolerance="10"
   inkscape:pageopacity="0"
   inkscape:pageshadow="2"
   inkscape:window-width="1920"
   inkscape:window-height="1055"
   id="namedview9"
   showgrid="false"
   inkscape:zoom="2.6074563"
   inkscape:cx="-26.838399"
   inkscape:cy="62.103965"
   inkscape:window-x="1920"
   inkscape:window-y="0"
   inkscape:window-maximized="1"
   inkscape:current-layer="Layer_1" />
<rect
   y="0"
   x="-64"
   height="64"
   width="64"
   style="opacity:0;fill:#ffffff"
   id="icon-m-refresh_1_"
   transform="scale(-1,1)" /><path
   inkscape:connector-curvature="0"
   id="path3"
   d="m 32.003,51.563 c 10.77,0 19.532,-8.762 19.532,-19.53 0,-10.771 -8.762,-19.533 -19.532,-19.533 -5.048,0 -9.838,1.92 -13.489,5.406 -0.399,0.381 -0.414,1.014 -0.033,1.414 0.382,0.4 1.015,0.415 1.414,0.033 3.277,-3.129 7.578,-4.853 12.108,-4.853 9.667,0 17.532,7.865 17.532,17.533 0,9.666 -7.865,17.53 -17.532,17.53 -4.098,0 -8.086,-1.447 -11.23,-4.076 -0.426,-0.354 -1.056,-0.296 -1.409,0.126 -0.354,0.424 -0.298,1.055 0.126,1.409 3.504,2.929 7.947,4.541 12.513,4.541 z"
   style="opacity:0.6;fill:#ffffff" />
<path
   sodipodi:type="star"
   style="opacity:1;fill:#ffffff;fill-opacity:1;fill-rule:evenodd;stroke:#ffff00;stroke-width:0;stroke-miterlimit:4;stroke-dasharray:none;stroke-dashoffset:0;stroke-opacity:1"
   id="path825"
   sodipodi:sides="3"
   sodipodi:cx="12.512194"
   sodipodi:cy="22.196804"
   sodipodi:r1="6.3634982"
   sodipodi:r2="3.1817491"
   sodipodi:arg1="-0.53783553"
   sodipodi:arg2="0.50936202"
   inkscape:flatsided="false"
   inkscape:rounded="0"
   inkscape:randomized="0"
   d="M 17.97729,18.936922 15.290038,23.74829 12.602786,28.559657 9.7796455,23.826745 6.9565048,19.093833 12.466897,19.015377 Z"
   inkscape:transform-center-x="7.296036"
   inkscape:transform-center-y="-0.14735897"
   transform="matrix(0.60165272,0.88180113,-0.97181431,0.66306869,34.714116,-8.3359631)" /></svg>